<svg width="30" height="22" viewBox="0 0 30 22" fill="none" xmlns="http://www.w3.org/2000/svg">
<g clip-path="url(#clip0_164_3616)">
<path d="M0 0H30V22H0" fill="#BD3D44"/>
<path d="M0 2.53418H30H0ZM0 5.9121H30H0ZM0 9.30376H30H0ZM0 12.6954H30H0ZM0 16.0871H30H0ZM0 19.4788H30H0Z" fill="black"/>
<path d="M0 1.68652V3.38236H30V1.68652H0ZM0 5.06444V6.76027H30V5.06444H0ZM0 8.45611V10.1519H30V8.45611H0ZM0 11.8478V13.5436H30V11.8478H0ZM0 15.2394V16.9353H30V15.2394H0ZM0 18.6311V20.3269H30V18.6311H0Z" fill="white"/>
<path d="M0 0H17.1V11.8479H0" fill="#192F5D"/>
<path d="M15.6562 9.99141L16.0781 11.2289L15 10.4497H16.3125L15.2344 11.2289L15.6562 9.99141ZM12.8438 9.99141L13.2656 11.2289L12.1875 10.4497H13.5L12.4219 11.2289L12.8438 9.99141ZM9.98438 9.99141L10.4062 11.2289L9.32812 10.4497H10.6406L9.5625 11.2289L9.98438 9.99141ZM7.125 9.99141L7.54688 11.2289L6.46875 10.4497H7.78125L6.70312 11.2289L7.125 9.99141ZM4.26562 9.99141L4.6875 11.2289L3.60938 10.4497H4.92188L3.84375 11.2289L4.26562 9.99141ZM1.40625 9.99141L1.82812 11.2289L0.75 10.4497H2.0625L0.984375 11.2289L1.40625 9.99141ZM14.25 8.79974L14.6719 10.0372L13.5938 9.25807H14.9062L13.8281 10.0372L14.25 8.79974ZM11.3906 8.79974L11.8125 10.0372L10.7344 9.25807H12.0469L10.9688 10.0372L11.3906 8.79974ZM8.57812 8.79974L9 10.0372L7.92188 9.25807H9.23438L8.15625 10.0372L8.57812 8.79974ZM5.71875 8.79974L6.14062 10.0372L5.0625 9.25807H6.375L5.29688 10.0372L5.71875 8.79974ZM2.85938 8.79974L3.28125 10.0372L2.20312 9.25807H3.51562L2.4375 10.0372L2.85938 8.79974ZM15.6562 7.60807L16.0781 8.84557L15 8.06641H16.3125L15.2344 8.84557L15.6562 7.60807ZM12.8438 7.60807L13.2656 8.84557L12.1875 8.06641H13.5L12.4219 8.84557L12.8438 7.60807ZM9.98438 7.60807L10.4062 8.84557L9.32812 8.06641H10.6406L9.5625 8.84557L9.98438 7.60807ZM7.125 7.60807L7.54688 8.84557L6.46875 8.06641H7.78125L6.70312 8.84557L7.125 7.60807ZM4.26562 7.60807L4.6875 8.84557L3.60938 8.06641H4.92188L3.84375 8.84557L4.26562 7.60807ZM1.40625 7.60807L1.82812 8.84557L0.75 8.06641H2.0625L0.984375 8.84557L1.40625 7.60807ZM14.25 6.46224L14.6719 7.69974L13.5938 6.92057H14.9062L13.8281 7.69974L14.25 6.46224ZM11.3906 6.46224L11.8125 7.69974L10.7344 6.92057H12.0469L10.9688 7.69974L11.3906 6.46224ZM8.57812 6.46224L9 7.69974L7.92188 6.92057H9.23438L8.15625 7.69974L8.57812 6.46224ZM5.71875 6.46224L6.14062 7.69974L5.0625 6.92057H6.375L5.29688 7.69974L5.71875 6.46224ZM2.85938 6.46224L3.28125 7.69974L2.20312 6.92057H3.51562L2.4375 7.69974L2.85938 6.46224ZM15.6562 5.27057L16.0781 6.50807L15 5.72891H16.3125L15.2344 6.50807L15.6562 5.27057ZM12.8438 5.27057L13.2656 6.50807L12.1875 5.72891H13.5L12.4219 6.50807L12.8438 5.27057ZM9.98438 5.27057L10.4062 6.50807L9.32812 5.72891H10.6406L9.5625 6.50807L9.98438 5.27057ZM7.125 5.27057L7.54688 6.50807L6.46875 5.72891H7.78125L6.70312 6.50807L7.125 5.27057ZM4.26562 5.27057L4.6875 6.50807L3.60938 5.72891H4.92188L3.84375 6.50807L4.26562 5.27057ZM1.40625 5.27057L1.82812 6.50807L0.75 5.72891H2.0625L0.984375 6.50807L1.40625 5.27057ZM14.25 4.07891L14.6719 5.31641L13.5938 4.53724H14.9062L13.8281 5.31641L14.25 4.07891ZM11.3906 4.07891L11.8125 5.31641L10.7344 4.53724H12.0469L10.9688 5.31641L11.3906 4.07891ZM8.57812 4.07891L9 5.31641L7.92188 4.53724H9.23438L8.15625 5.31641L8.57812 4.07891ZM5.71875 4.07891L6.14062 5.31641L5.0625 4.53724H6.375L5.29688 5.31641L5.71875 4.07891ZM2.85938 4.07891L3.28125 5.31641L2.20312 4.53724H3.51562L2.4375 5.31641L2.85938 4.07891ZM15.6562 2.88724L16.0781 4.12474L15 3.34557H16.3125L15.2344 4.12474L15.6562 2.88724ZM12.8438 2.88724L13.2656 4.12474L12.1875 3.34557H13.5L12.4219 4.12474L12.8438 2.88724ZM9.98438 2.88724L10.4062 4.12474L9.32812 3.34557H10.6406L9.5625 4.12474L9.98438 2.88724ZM7.125 2.88724L7.54688 4.12474L6.46875 3.34557H7.78125L6.70312 4.12474L7.125 2.88724ZM4.26562 2.88724L4.6875 4.12474L3.60938 3.34557H4.92188L3.84375 4.12474L4.26562 2.88724ZM1.40625 2.88724L1.82812 4.12474L0.75 3.34557H2.0625L0.984375 4.12474L1.40625 2.88724ZM14.25 1.69557L14.6719 2.93307L13.5938 2.15391H14.9062L13.8281 2.93307L14.25 1.69557ZM11.3906 1.69557L11.8125 2.93307L10.7344 2.15391H12.0469L10.9688 2.93307L11.3906 1.69557ZM8.57812 1.69557L9 2.93307L7.92188 2.15391H9.23438L8.15625 2.93307L8.57812 1.69557ZM5.71875 1.69557L6.14062 2.93307L5.0625 2.15391H6.375L5.29688 2.93307L5.71875 1.69557ZM2.85938 1.69557L3.28125 2.93307L2.20312 2.15391H3.51562L2.4375 2.93307L2.85938 1.69557ZM15.6562 0.503906L16.0781 1.74141L15 0.96224H16.3125L15.2344 1.74141L15.6562 0.503906ZM12.8438 0.503906L13.2656 1.74141L12.1875 0.96224H13.5L12.4219 1.74141L12.8438 0.503906ZM9.98438 0.503906L10.4062 1.74141L9.32812 0.96224H10.6406L9.5625 1.74141L9.98438 0.503906ZM7.125 0.503906L7.54688 1.74141L6.46875 0.96224H7.78125L6.70312 1.74141L7.125 0.503906ZM4.26562 0.503906L4.6875 1.74141L3.60938 0.96224H4.92188L3.84375 1.74141L4.26562 0.503906ZM1.40625 0.503906L1.82812 1.74141L0.75 0.96224H2.0625L0.984375 1.74141L1.40625 0.503906Z" fill="white"/>
</g>
<defs>
<clipPath id="clip0_164_3616">
<rect width="30" height="22" rx="4" fill="white"/>
</clipPath>
</defs>
</svg>
